<svg width="29" height="51" viewBox="0 0 29 51" fill="none" xmlns="http://www.w3.org/2000/svg">
<path d="M21.7514 46.2188H17.7222V34.5346C24.6214 32.9528 29.6052 26.5798 28.9406 19.1848L27.3404 1.44434C27.2699 0.622559 26.575 0 25.7593 0H3.24511C2.42639 0 1.73355 0.622559 1.65803 1.44434L0.0598661 19.1848C-0.607394 26.5808 4.37802 32.9508 11.2782 34.5445V46.2188H7.24807C5.0195 46.2188 3.21893 47.9998 3.21893 50.2031C3.21893 50.6389 3.58408 51 4.02476 51H24.971C25.4117 51 25.7769 50.6389 25.7769 50.2031C25.7795 48.0018 23.9769 46.2188 21.7514 46.2188ZM6.21485 4.78125H22.7906L23.5036 12.75H5.49583L6.21485 4.78125Z" fill="black"/>
</svg>
